<?xml version="1.0" encoding="utf-8"?>
<!-- Generator: Adobe Illustrator 24.3.0, SVG Export Plug-In . SVG Version: 6.00 Build 0)  -->
<svg version="1.1" id="Layer_1" xmlns="http://www.w3.org/2000/svg" xmlns:xlink="http://www.w3.org/1999/xlink" x="0px" y="0px"
	 viewBox="0 0 2500 2100" style="enable-background:new 0 0 2500 2100;" xml:space="preserve">
<style type="text/css">
	.st0{fill:#FFFFFF;}
</style>
<g>
	<polygon class="st0" points="1569.7,520.8 2159,520.8 1862,8.3 647.3,8.3 513.2,236.6 1731.8,236.6 	"/>
	<polygon class="st0" points="346.2,520.8 48.9,1027 196.2,1282.2 636.5,520.8 	"/>
	<polygon class="st0" points="2020.6,1322.9 1717.3,1845.1 793.4,1845.1 644.4,1571.8 1240.4,520.8 960,520.8 354.2,1555.9 
		663.7,2091.7 1856.3,2091.7 2286,1321.2 2021.5,1321.2 	"/>
	<polygon class="st0" points="1418.6,785.7 980.3,1554.4 1561.4,1554.4 1689.9,1321.2 1400.9,1321.2 1547.8,1025 2451.1,1025 
		2312.5,785.7 1429.6,785.7 	"/>
</g>
</svg>
