<svg width="86" height="100" viewBox="0 0 86 100" fill="none" xmlns="http://www.w3.org/2000/svg">
<g clip-path="url(#clip0)">
<path d="M42.7386 100.814C41.4113 100.814 40.1725 100.448 39.0222 99.8057L27.2536 92.5615C25.4839 91.5528 26.3688 91.186 26.8997 91.0026C29.2888 90.1774 29.7312 89.9939 32.2088 88.5268C32.4743 88.3434 32.8282 88.4351 33.0937 88.6185L42.1192 94.2121C42.4732 94.3955 42.9156 94.3955 43.1811 94.2121L78.4869 73.0296C78.8408 72.8462 79.0178 72.4794 79.0178 72.0209V29.7477C79.0178 29.2892 78.8408 28.9224 78.4869 28.739L43.1811 7.64818C42.8271 7.46479 42.3847 7.46479 42.1192 7.64818L6.8134 28.739C6.45946 28.9224 6.28249 29.3809 6.28249 29.7477V72.0209C6.28249 72.3877 6.45946 72.8462 6.8134 73.0296L16.4584 78.8067C21.679 81.5576 24.953 78.3482 24.953 75.1387V33.4156C24.953 32.8654 25.3954 32.3152 26.0148 32.3152H30.5276C31.0585 32.3152 31.5894 32.7737 31.5894 33.4156V75.1387C31.5894 82.3829 27.7845 86.6011 21.1481 86.6011C19.1129 86.6011 17.5202 86.6011 13.0074 84.3086L3.7164 78.8067C1.41577 77.4312 0 74.8636 0 72.1126V29.8394C0 27.0884 1.41577 24.5208 3.7164 23.1453L39.0222 1.96284C41.2344 0.679053 44.2429 0.679053 46.455 1.96284L81.7608 23.1453C84.0615 24.5208 85.4772 27.0884 85.4772 29.8394V72.1126C85.4772 74.8636 84.0615 77.4312 81.7608 78.8067L46.455 99.9892C45.3047 100.539 43.9774 100.814 42.7386 100.814ZM53.6224 71.7458C38.1374 71.7458 34.9519 64.4099 34.9519 58.1744C34.9519 57.6242 35.3943 57.074 36.0137 57.074H40.615C41.1459 57.074 41.5883 57.4408 41.5883 57.991C42.2962 62.851 44.3314 65.2352 53.7109 65.2352C61.1437 65.2352 64.3291 63.4929 64.3291 59.3665C64.3291 56.9823 63.4443 55.24 51.8527 54.0479C42.2077 53.0392 36.1907 50.8384 36.1907 42.8606C36.1907 35.433 42.2077 31.0314 52.2951 31.0314C63.6213 31.0314 69.1959 35.0662 69.9037 43.8693C69.9037 44.1444 69.8153 44.4195 69.6383 44.6946C69.4613 44.878 69.1959 45.0614 68.9304 45.0614H64.3291C63.8867 45.0614 63.4443 44.6946 63.3558 44.2361C62.294 39.1927 59.5509 37.5421 52.2951 37.5421C44.1544 37.5421 43.1811 40.4765 43.1811 42.6772C43.1811 45.3365 44.3314 46.1618 55.3036 47.629C66.1873 49.0962 71.3195 51.2052 71.3195 59.0914C71.231 67.1609 64.8601 71.7458 53.6224 71.7458Z" fill="#539E43"/>
</g>
<defs>
<clipPath id="clip0">
<rect width="85.4772" height="100" fill="white"/>
</clipPath>
</defs>
</svg>
