<svg width="97" height="100" viewBox="0 0 97 100" fill="none" xmlns="http://www.w3.org/2000/svg">
<g clip-path="url(#clip0)">
<path d="M96.242 83.3333C96.242 92.5 89.0238 100 80.2016 100H16.0403C7.21815 100 0 92.5 0 83.3333V16.6667C0 7.5 7.21815 0 16.0403 0H80.2016C89.0238 0 96.242 7.5 96.242 16.6667V83.3333Z" fill="#563D7C"/>
<path d="M26.1523 21.7324H53.4366C58.4689 21.7324 62.5104 22.9252 65.5455 25.3272C68.5806 27.7292 70.106 31.3403 70.106 36.1932C70.106 39.1344 69.4141 41.6507 68.0302 43.7422C66.6463 45.8337 64.6649 47.4677 62.0858 48.6115V48.7749C65.5455 49.5429 68.1717 51.2422 69.9487 53.8729C71.7258 56.52 72.6221 59.8207 72.6221 63.8076C72.6221 66.0952 72.229 68.2357 71.4427 70.2128C70.6564 72.2063 69.4298 73.922 67.7471 75.3599C66.0645 76.7978 63.9257 77.9416 61.2995 78.7912C58.6733 79.6409 55.5596 80.0658 51.9427 80.0658H26.1523V21.7324ZM35.981 46.1605H52.0213C54.3802 46.1605 56.3459 45.4743 57.9185 44.069C59.4911 42.6638 60.2774 40.6703 60.2774 38.056C60.2774 35.1148 59.5697 33.0396 58.1544 31.8468C56.739 30.654 54.6947 30.0494 52.0213 30.0494H35.981V46.1605ZM35.981 71.7324H53.358C56.3459 71.7324 58.6733 70.9318 60.3088 69.3141C61.96 67.7128 62.7935 65.4252 62.7935 62.4841C62.7935 59.5919 61.9757 57.386 60.3088 55.8174C58.6419 54.2488 56.3459 53.4971 53.358 53.4971H35.981V71.7324Z" fill="white"/>
</g>
<defs>
<clipPath id="clip0">
<rect width="96.242" height="100" fill="white"/>
</clipPath>
</defs>
</svg>
