<svg width="588" height="684" viewBox="0 0 588 684" fill="none" xmlns="http://www.w3.org/2000/svg">
<path d="M438.526 282.017C386.618 331.063 335.671 291.653 312.312 264.635C288.954 237.616 302.031 233.221 353.939 184.175C405.847 135.129 466.862 117.272 490.22 144.29C513.579 171.309 490.434 232.971 438.526 282.017Z" fill="black"/>
<path d="M438.526 282.017C386.618 331.063 335.671 291.653 312.312 264.635C288.954 237.616 302.031 233.221 353.939 184.175C405.847 135.129 466.862 117.272 490.22 144.29C513.579 171.309 490.434 232.971 438.526 282.017Z" fill="black"/>
<path d="M438.526 282.017C386.618 331.063 335.671 291.653 312.312 264.635C288.954 237.616 302.031 233.221 353.939 184.175C405.847 135.129 466.862 117.272 490.22 144.29C513.579 171.309 490.434 232.971 438.526 282.017Z" fill="black"/>
<path d="M351.532 245.948C353.605 317.17 370.93 260.121 335.233 262.879C299.536 265.637 300.33 251.888 225.314 236.635C223.242 165.413 247.448 124.741 283.145 121.983C318.842 119.225 349.46 174.726 351.532 245.948Z" fill="black"/>
<path d="M351.532 245.948C353.605 317.17 370.93 260.121 335.233 262.879C299.536 265.637 300.33 251.888 225.314 236.635C223.242 165.413 247.448 124.741 283.145 121.983C318.842 119.225 349.46 174.726 351.532 245.948Z" fill="black"/>
<path d="M351.532 245.948C353.605 317.17 370.93 260.121 335.233 262.879C299.536 265.637 300.33 251.888 225.314 236.635C223.242 165.413 247.448 124.741 283.145 121.983C318.842 119.225 349.46 174.726 351.532 245.948Z" fill="black"/>
<path d="M153.667 201.244L427.105 322.34C462.958 338.218 479.152 380.155 463.273 416.009L350.231 671.261L76.7927 550.165C40.9391 534.287 24.746 492.35 40.6242 456.496L153.667 201.244Z" stroke="black" stroke-width="18"/>
<path d="M238.024 321.811L158.884 500.511L135.587 490.193L214.727 311.493L238.024 321.811ZM417.922 401.482L408.285 423.243L346.585 395.918L277.082 552.857L253.785 542.539L323.287 385.601L261.587 358.276L271.225 336.514L417.922 401.482Z" fill="black"/>
</svg>
