<svg width="46" height="100" viewBox="0 0 46 100" fill="none" xmlns="http://www.w3.org/2000/svg">
<path d="M43.0675 41.0626C38.1831 18.4383 27.9894 12.4137 25.4027 8.15511C23.9969 5.8385 22.5634 2.31787 22.5634 2.31787C22.4232 4.32456 22.1747 5.59546 20.5437 7.12055C17.2775 10.1774 3.39713 22.0525 2.23123 47.7605C1.1439 71.7292 19.0083 86.5118 21.3826 88.0392C23.1962 88.9756 25.4176 88.057 26.4794 87.1986C35.0888 80.9912 46.8668 64.4405 43.0569 41.0626" fill="#10AA50"/>
<path d="M23.3039 75.272C22.8558 81.2073 22.533 84.661 21.3926 88.0457C21.3926 88.0457 22.1444 93.6934 22.6668 99.6778H24.5293C24.9739 95.4629 25.6525 91.2789 26.5616 87.1471C24.1491 85.9052 23.3952 80.4782 23.3039 75.272Z" fill="#B8C4C2"/>
<path d="M26.5594 87.1514C24.1215 85.9697 23.4164 80.4335 23.3081 75.2718C23.9088 66.7618 24.0824 58.2246 23.8284 49.6955C23.701 45.2205 23.8921 8.24173 22.7793 2.82812C23.2295 3.88721 24.3168 6.37551 25.4042 8.15254C28.0014 12.4134 38.1866 18.4379 43.0668 41.0645C46.8703 64.3822 35.1625 80.9039 26.5594 87.1514Z" fill="#12924F"/>
</svg>
